<svg width="239" height="31" viewBox="0 0 239 31" fill="none" xmlns="http://www.w3.org/2000/svg">
<path fill-rule="evenodd" clip-rule="evenodd" d="M219.105 17.6484C221.737 18.9201 224.454 19.5532 226.75 19.4284C226.764 19.4284 226.778 19.4261 226.791 19.4261L226.956 2.51543C226.962 1.91834 226.317 1.55851 225.84 1.89248L212.111 11.4875C213.222 13.6824 215.791 16.046 219.104 17.6484H219.105Z" fill="#00C6FB"/>
<path fill-rule="evenodd" clip-rule="evenodd" d="M226.18 21.0499C223.783 21.0499 221.069 20.3685 218.452 19.1046C214.841 17.3617 212.125 14.8722 210.82 12.3894L203.842 17.2695C203.296 17.6507 203.495 18.5289 204.145 18.62L215.866 20.2729C216.556 20.3708 217.188 20.7238 217.646 21.2658L225.434 30.492C225.867 31.0047 226.682 30.6933 226.689 30.0096L226.777 21.0331C226.58 21.0454 226.381 21.0499 226.18 21.0499Z" fill="#00C6FB"/>
<path fill-rule="evenodd" clip-rule="evenodd" d="M226.181 19.769C223.784 19.769 221.07 19.0876 218.453 17.8237C212.295 14.8495 208.736 9.71302 210.349 6.12713C211.962 2.54348 218.049 2.06671 224.206 5.04315C226.22 6.01693 228.046 7.27857 229.486 8.69314C229.796 8.99786 229.809 9.50837 229.516 9.82996C229.219 10.1516 228.729 10.1651 228.419 9.86145C227.1 8.56382 225.416 7.40338 223.551 6.50157C218.359 3.99291 212.957 4.13458 211.754 6.80854C210.55 9.4825 213.918 13.8589 219.108 16.3687C221.74 17.6393 224.454 18.2724 226.752 18.1476C228.875 18.0329 230.347 17.2919 230.903 16.0606C231.479 14.7776 230.922 13.3147 230.352 12.3094C230.134 11.926 230.258 11.4346 230.628 11.2085C230.999 10.9837 231.472 11.1107 231.691 11.4942C232.764 13.381 232.984 15.2442 232.31 16.7386C231.503 18.5321 229.558 19.6015 226.836 19.7511C226.618 19.7634 226.401 19.7679 226.181 19.7679V19.769Z" fill="#00C6FB"/>
<path d="M17.266 2.73242C15.1235 0.810725 12.6094 0 9.4779 0C5.06823 0 0.699716 2.00716 0.699716 6.78947C0.699716 11.7427 5.43867 13.3653 9.23094 13.5362C11.992 13.6217 12.6928 14.4324 12.6928 15.4152C12.734 16.525 11.3735 17.2514 9.64254 17.2087C7.5 17.166 5.06823 16.6959 2.55413 14.5617L0 18.9167C3.46188 21.9056 6.55221 22.5038 9.56022 22.5038C16.0301 22.5038 18.503 18.8313 18.4619 15.4152C18.4207 9.60736 13.5995 8.7539 9.60138 8.62571C7.62348 8.58298 6.59337 7.94317 6.59337 6.78947C6.59337 5.76509 7.58232 5.03869 9.51906 5.03869C11.3735 5.03869 12.8163 5.46598 14.3414 6.57582L17.2671 2.73355L17.266 2.73242Z" fill="white"/>
<path d="M31.8134 16.6092C28.7643 16.6092 26.8275 14.3457 26.8275 11.1871C26.8275 8.15553 28.6408 5.76494 31.8134 5.76494C34.4922 5.76494 37.2944 7.17388 37.2944 11.1871C37.2944 14.7314 34.5333 16.6092 31.8134 16.6092ZM43.3527 30.9989V0.640781H38.0364L37.6659 3.33049C35.7704 0.810579 33.4621 0.256226 30.9068 0.256226C24.932 0.256226 20.8516 4.61124 20.8516 11.1871C20.8516 18.0193 25.0132 22.1606 30.9891 22.1606C33.1317 22.1606 35.6458 21.3926 37.3767 19.1718V31H43.3527V30.9989Z" fill="white"/>
<path d="M48.091 0.597092V11.7843C48.091 19.9827 52.0056 22.1181 56.5799 22.1181C59.0528 22.1608 61.3611 21.4344 63.1733 18.9156L63.3791 21.6908H68.7365V0.597092H62.8852V11.4852C62.8852 14.2177 61.0307 16.6948 58.2697 16.6521C55.4263 16.6521 54.0658 14.9868 54.0658 11.7416V0.597092H48.0898H48.091Z" fill="white"/>
<path d="M89.3011 3.03162C88.2298 1.15265 85.8392 0.128278 83.284 0.128278C77.2668 0.0428198 72.6113 4.14259 72.6113 11.1446C72.6113 18.1038 77.0199 22.2036 83.1193 22.1609C85.0972 22.1182 88.0229 21.2636 89.3834 19.0439L89.7127 21.6909H95.0702C95.0702 14.6878 95.0702 7.60029 95.0702 0.597168H89.5069L89.3011 3.03162ZM83.9025 5.55153C87.4467 5.55153 89.3011 8.3267 89.3011 11.3582C89.3011 14.0052 87.2409 16.6949 83.9025 16.6949C80.9356 16.6949 78.545 14.6461 78.545 11.1446C78.545 7.64302 80.9356 5.55153 83.9025 5.55153Z" fill="white"/>
<path d="M100.097 0.639695V21.6895H106.031V10.716C106.031 7.55623 108.214 5.84819 110.769 5.84819C112.005 5.84819 113.035 6.19002 114.024 6.9153L116.497 2.04752C115.055 0.724031 113.448 0.125824 111.51 0.125824C109.244 0.125824 107.431 0.97928 106.071 2.94371L105.618 0.638569H100.096L100.097 0.639695Z" fill="white"/>
<path d="M138.095 13.1507C139.372 4.52608 134.84 0.0417519 127.916 0.0417519C121.282 0.0417519 117.119 4.52496 117.119 10.9299C117.119 17.6766 121.157 22.1598 128.534 22.1598C131.583 22.1598 135.086 21.2625 137.27 19.0428L133.932 15.1994C132.491 16.4802 130.265 16.8648 128.657 16.8648C125.32 16.8648 123.423 15.1994 123.135 13.1495H138.094L138.095 13.1507ZM123.136 8.66746C123.714 6.57484 125.526 5.29409 127.916 5.29409C130.389 5.29409 132.655 6.3612 132.779 8.66746H123.136Z" fill="white"/>
<path d="M161.008 21.6905V10.3751C161.008 7.98453 162.408 5.89192 164.758 5.89192C167.147 5.89192 167.848 7.64269 167.848 10.2897V21.6905H173.823V10.1615C173.823 2.30489 169.949 0.0852165 165.704 0.0852165C162.696 0.0852165 160.76 1.19505 158.946 4.05567C157.628 0.981402 155.238 0.126821 153.012 0.126821C151.281 0.126821 148.932 0.682296 147.655 2.98743L147.242 0.596836H142.051V21.6905H147.984V10.4179C147.984 8.02726 149.303 5.76373 151.652 5.76373C154.083 5.76373 155.155 7.59997 155.155 10.3751V21.6905H161.007H161.008Z" fill="white"/>
<path d="M198.384 13.1507C199.661 4.52608 195.129 0.0417519 188.205 0.0417519C181.57 0.0417519 177.408 4.52496 177.408 10.9299C177.408 17.6766 181.446 22.1598 188.823 22.1598C191.872 22.1598 195.376 21.2625 197.56 19.0428L194.223 15.1994C192.78 16.4802 190.555 16.8648 188.947 16.8648C185.61 16.8648 183.715 15.1994 183.425 13.1495H198.384V13.1507ZM183.425 8.66746C184.003 6.57484 185.816 5.29409 188.205 5.29409C190.677 5.29409 192.944 6.3612 193.068 8.66746H183.424H183.425Z" fill="white"/>
<path d="M233.917 0V0.841092H232.519V4.73171H231.531V0.841092H230.127V0H233.917Z" fill="white"/>
<path d="M237.589 0H239V4.73171H238.083V1.53151C238.083 1.4393 238.083 1.30773 238.09 1.14356C238.09 0.979393 238.09 0.854591 238.09 0.762385L237.205 4.73171H236.256L235.379 0.762385C235.379 0.854591 235.379 0.979393 235.379 1.14356C235.385 1.30773 235.385 1.4393 235.385 1.53151V4.73171H234.474V0H235.892L236.744 3.7197L237.589 0Z" fill="white"/>
</svg>
