<svg width="21" height="20" viewBox="0 0 21 20" fill="none" xmlns="http://www.w3.org/2000/svg">
<path opacity="0.4" d="M14.0331 1.6665H6.96646C4.66646 1.6665 3.83313 2.49984 3.83313 4.8415V15.1582C3.83313 17.4998 4.66646 18.3332 6.96646 18.3332H14.0248C16.3331 18.3332 17.1665 17.4998 17.1665 15.1582V4.8415C17.1665 2.49984 16.3331 1.6665 14.0331 1.6665Z" fill="#9F56D4"/>
<path d="M12.1665 5.2085H8.83313C8.49146 5.2085 8.20813 4.92516 8.20813 4.5835C8.20813 4.24183 8.49146 3.9585 8.83313 3.9585H12.1665C12.5081 3.9585 12.7915 4.24183 12.7915 4.5835C12.7915 4.92516 12.5081 5.2085 12.1665 5.2085Z" fill="#9F56D4"/>
<path d="M10.5002 16.0834C11.3056 16.0834 11.9585 15.4305 11.9585 14.6251C11.9585 13.8197 11.3056 13.1667 10.5002 13.1667C9.69479 13.1667 9.04187 13.8197 9.04187 14.6251C9.04187 15.4305 9.69479 16.0834 10.5002 16.0834Z" fill="#9F56D4"/>
</svg>
